# xmcd
#
# Track frame offsets:
#	150
#	13551
#	27670
#	41423
#	56237
#	69241
#	81212
#	93528
#	105593
#	118383
#	130309
#	142931
#	155358
#	168900
#	181328
#	196625
#	209164
#	220003
#	232207
#	243743
#	258121
#	270074
#	282279
#	294650
#	304793
#
# Disc length: 4213 seconds
#
# Revision: 3
# Processed by: cddbd v1.5.2PL0 Copyright (c) Steve Scherf et al.
# Submitted via: audiograbber 1.83.01
#
DISCID=6d107319
DTITLE=Blind Boy Fuller, Sonny Terry and Brownie McGhee - Triomphes du Blues 13, 
DTITLE=East Coast Blues
DYEAR=2001
DGENRE=Blues
TTITLE0=Blind Boy Fuller - My brownskin sugar plum - 1935
TTITLE1=Blind Boy Fuller - Looking for my woman - 1935
TTITLE2=Blind Boy Fuller - Ain't it a cryin shame - 1935
TTITLE3=Blind Boy Fuller - Log cabin blues - 1935
TTITLE4=Blind Boy Fuller and Sonny Terry - I'm a stranger here - 1939
TTITLE5=Blind Boy Fuller and Sonny Terry - Pistol slapper blues - 1937
TTITLE6=Sonny Terry - Train whistle blues - 1938
TTITLE7=Sonny Terry - Harmonica blues - 1940
TTITLE8=Sonny Terry and Brownie McGhee - Shake down blues - 1944
TTITLE9=Brownie McGhee - Death of blind boy fuller - 1941
TTITLE10=Brownie McGhee - I'm a black woman's man - 1941
TTITLE11=Brownie McGhee - Key to my door - 1941
TTITLE12=Brownie McGhee - I don't believe in love - 1941
TTITLE13=Brownie McGhee - Unfair blues - 1941
TTITLE14=Sonny Terry and Brownie McGhee - Telephone blues - 1950
TTITLE15=Sonny Terry and Sticks McGhee - Riff and harmonica jump - 1947
TTITLE16=Sonny Terry and Sticks McGhee - Harmonica rag - 1947
TTITLE17=Sonny Terry and Brownie McGhee - Dirty mistreater, don't you know - 1950
TTITLE18=Sonny Terry and Brownie McGhee - Crow Jane blues - 1947
TTITLE19=Sonny Terry and Brownie McGhee - Hot headed woman - 1947
TTITLE20=Brownie McGhee and Sonny Terry - Big legged woman - 1947
TTITLE21=Brownie McGhee - Aunt Jane blues - 1947
TTITLE22=Brownie McGhee - Poor boy blues - 1947
TTITLE23=Brownie McGhee - Robbie Doby boogie - 1948
TTITLE24=Brownie McGhee - Brownie's new worried life blues - 1948
EXTD=YEAR: 2001
EXTT0=
EXTT1=
EXTT2=
EXTT3=
EXTT4=
EXTT5=
EXTT6=
EXTT7=
EXTT8=
EXTT9=
EXTT10=
EXTT11=
EXTT12=
EXTT13=
EXTT14=
EXTT15=
EXTT16=
EXTT17=
EXTT18=
EXTT19=
EXTT20=
EXTT21=
EXTT22=
EXTT23=
EXTT24=
PLAYORDER=
